<svg xmlns="http://www.w3.org/2000/svg" width="52" height="26" fill="none">
  <path fill="#272A33" d="M.055 25.144V1.336h5.713l.476 4.176h.19c.858-1.6 1.89-2.784 3.096-3.552 1.206-.8 2.412-1.2 3.618-1.2.667 0 1.222.048 1.667.144.444.064.825.176 1.142.336l-1.142 6.096a8.652 8.652 0 0 0-1.238-.288 8.139 8.139 0 0 0-1.333-.096c-.89 0-1.826.336-2.81 1.008-.952.64-1.745 1.76-2.38 3.36v13.824h-7ZM23.21 25.144 17.306 1.336h6.951l2.286 11.04c.19 1.184.365 2.352.524 3.504.158 1.152.333 2.336.523 3.552h.19c.223-1.216.43-2.416.62-3.6.222-1.184.476-2.336.761-3.456l2.62-11.04h6.046l2.666 11.04c.286 1.184.54 2.352.762 3.504.254 1.152.492 2.336.714 3.552h.19c.223-1.216.398-2.4.525-3.552.158-1.152.349-2.32.57-3.504l2.239-11.04h6.475l-5.666 23.808h-8.19L35.97 15.64l-.666-3.36c-.191-1.12-.397-2.32-.62-3.6h-.19c-.222 1.28-.428 2.48-.619 3.6-.159 1.12-.35 2.24-.571 3.36l-2.095 9.504h-8Z"/>
</svg>