<svg xmlns="http://www.w3.org/2000/svg" width="52" height="25" fill="none">
  <path fill="#fff" d="M0 24.384V.576h5.714l.476 4.176h.19c.857-1.6 1.889-2.784 3.095-3.552C10.681.4 11.887 0 13.094 0c.666 0 1.222.048 1.666.144.444.064.825.176 1.143.336L14.76 6.576a8.649 8.649 0 0 0-1.238-.288 8.139 8.139 0 0 0-1.333-.096c-.889 0-1.825.336-2.81 1.008-.952.64-1.745 1.76-2.38 3.36v13.824H0ZM23.155 24.384 17.251.576h6.952l2.285 11.04c.19 1.184.365 2.352.524 3.504.159 1.152.333 2.336.523 3.552h.191c.222-1.216.428-2.416.619-3.6.222-1.184.476-2.336.762-3.456L31.725.576h6.047l2.667 11.04c.285 1.184.54 2.352.761 3.504.254 1.152.492 2.336.715 3.552h.19c.222-1.216.397-2.4.524-3.552.159-1.152.349-2.32.571-3.504L45.438.576h6.475l-5.666 23.808h-8.189l-2.143-9.504-.666-3.36c-.19-1.12-.397-2.32-.62-3.6h-.19c-.222 1.28-.428 2.48-.619 3.6-.158 1.12-.349 2.24-.57 3.36l-2.096 9.504h-7.999Z"/>
</svg>